<?xml version="1.0" encoding="utf-8"?>
<!-- Generator: Adobe Illustrator 23.0.3, SVG Export Plug-In . SVG Version: 6.00 Build 0)  -->
<svg version="1.1" id="Layer_1" xmlns="http://www.w3.org/2000/svg" xmlns:xlink="http://www.w3.org/1999/xlink" x="0px" y="0px"
	 viewBox="0 0 1080 1080" style="enable-background:new 0 0 1080 1080;" xml:space="preserve">
<style type="text/css">
	.st0{fill:#00E5A0;}
	.st1{fill:none;stroke:url(#SVGID_1_);stroke-width:30;stroke-miterlimit:10;}
</style>
<g>
	<g>
		<path class="st0" d="M96,568.8h102.1c1.7,5.2,6.9,9.7,15.3,13.3c8.5,3.6,19.9,6.4,34.2,8.2c14.3,1.9,31,2.8,49.9,2.8
			c18.7,0,33.5-0.6,44.3-1.7s18.5-3.1,23-6c4.5-2.9,6.7-6.8,6.7-11.8c0-4.7-3.6-8.4-10.8-11c-7.2-2.6-20.1-4.4-38.5-5.4
			c-18.5-1-44.4-1.5-77.8-1.5c-24.9,0-46.4-1.2-64.5-3.6c-18.1-2.4-32.9-6.1-44.5-11.2c-11.6-5.1-20.1-11.6-25.6-19.4
			c-5.5-7.9-8.2-17.3-8.2-28.2c0-18.9,6.4-34.6,19.3-46.9c12.8-12.3,32.3-21.6,58.3-27.7c26.1-6.1,58.7-9.2,97.8-9.2
			c57.3,0,101.2,8.3,131.5,24.9c30.3,16.6,45.4,40.5,45.4,71.6H357c-1.3-8.2-9-14.5-23.2-18.9c-14.2-4.4-34.4-6.5-60.6-6.5
			c-25.9,0-45.2,1.5-57.8,4.5c-12.6,3-18.9,8.1-18.9,15.3c0,3.7,1.7,6.7,5.2,9c3.5,2.2,9.5,4.1,18.1,5.4c8.6,1.4,20.8,2.3,36.5,2.8
			c15.7,0.5,35.7,0.7,59.8,0.7c26.7,0,49.4,1.3,68.1,3.9c18.7,2.6,33.8,6.5,45.4,11.8c11.6,5.2,20,11.9,25.2,20
			c5.2,8.1,7.9,17.6,7.9,28.6c0,19-6,34.4-18,46.4c-12,12-30.9,20.8-56.8,26.6c-25.9,5.7-59.8,8.6-101.7,8.6
			c-23.7,0-45.4-1.4-65.3-4.1c-19.8-2.7-37.5-6.8-52.9-12.2c-15.5-5.4-28.6-12-39.3-19.8c-10.7-7.9-18.9-16.7-24.5-26.6
			C98.8,591.7,96,580.8,96,568.8z"/>
		<path class="st0" d="M800.9,628.3h-56.1L949,417.3h93.5v239.4H949V493.6l28,11.6L829.4,656.7H717.2L569.1,505.6l28.4-11.6v162.7
			H504V417.3h93.5L800.9,628.3z"/>
	</g>
</g>
<linearGradient id="SVGID_1_" gradientUnits="userSpaceOnUse" x1="922.4368" y1="922.5555" x2="177.1462" y2="177.265">
	<stop  offset="0" style="stop-color:#0088DA"/>
	<stop  offset="1" style="stop-color:#00E5A0"/>
</linearGradient>
<circle class="st1" cx="549.8" cy="549.9" r="512"/>
</svg>
